# xmcd CD database file
#
# Track frame offsets:
#	150
#	20483
#	44192
#	63046
#	85665
#	110770
#	133196
#	156934
#	179647
#	205304
#	234813
#	256376
#
# Disc length: 3814 seconds
#
# Revision: 1
# Processed by: cddbd v1.4PL0 Copyright (c) Steve Scherf et al.
# Submitted via: CDex 1.40Release
#
DISCID=a80ee40c
DTITLE=Blue On First - Forever Blues
DYEAR=2003
DGENRE=Blues
TTITLE0=What Kind Of Voodoo Is That
TTITLE1=Kidney Stew Blues
TTITLE2=Can't Find My Way Home
TTITLE3=Payback Time
TTITLE4=Sure Be The Devil
TTITLE5=Sing The Blues For You
TTITLE6=Big Legged Woman
TTITLE7=The Thrill Is Gone
TTITLE8=Forever Blues
TTITLE9=Spoonful
TTITLE10=Hood River
TTITLE11=We Gotta Get Out Of This Place
EXTD=YEAR: 2003 ID3G: 0
EXTT0=
EXTT1=
EXTT2=
EXTT3=
EXTT4=
EXTT5=
EXTT6=
EXTT7=
EXTT8=
EXTT9=
EXTT10=
EXTT11=
PLAYORDER=
